<svg xmlns="http://www.w3.org/2000/svg" viewBox="0 0 238.32 88.88"><defs><style>.cls-1{fill:#fff;}</style></defs><title>Asset 1</title><g id="Layer_2" data-name="Layer 2"><g id="Layer_1-2" data-name="Layer 1"><path class="cls-1" d="M91.08,66.54c0,1.44-2.37,2.66-5,2.66-3.38,0-7.12-1.94-7.12-7.77,0-7.49,6.4-16,11.3-21.89C82.59,43.07,73.73,55.81,71.35,63c-.36,1-.93,1.44-1.72,1.44-1.66,0-5.91-2.81-5.91-6.05,0-9.93,10-28.94,15.63-28.94,1.8,0,5,2.08,5,4.39a3.13,3.13,0,0,1-1.51,2.45C75.6,43.5,69.55,54,69.55,57.83,71.14,56.46,83.6,34.28,93,31c2.59.22,5.32,1.3,5.32,3.31a3.88,3.88,0,0,1-1,2.38c-4.68,5.9-9.72,14.18-9.72,21.17a10.86,10.86,0,0,0,3.09,7.85A1.23,1.23,0,0,1,91.08,66.54Z"/><path class="cls-1" d="M107.5,54.8C104,59.63,99.94,63,97.56,63c-3.81,0-5.33-2.59-5.33-6.41,0-10.15,11-28.73,19.37-28.73,2.67,0,3.6,1.15,3.6,2.67,0,2.37-2.23,5.83-3.6,7.34a5.71,5.71,0,0,0-1.08-.14c-6.48,0-13.1,14.33-13.1,18.93,0,.87.29,1.37.79,1.37,2.16,0,7.06-4.32,11.88-14.25,4.54-9.44,11.59-20.24,11.59-28.23a10.35,10.35,0,0,0-.57-3.67,3.66,3.66,0,0,1-.43-1.08c0-.29.21-.58.79-.87a11.82,11.82,0,0,1,5.11-1.37c2.45,0,4.68,1.3,4.68,6,0,8.93-18.72,32.76-18.72,41.55,0,.86.36,1.22.79,1.22a2.91,2.91,0,0,0,1.73-1c.72-.64,3.46-4,6.34-7.27,2.08-2.37,9.14-11.09,10.44-12.89.21-.29.36-.43.57-.43.65,0,1.08,1.37,1.08,1.37-1.94,3.1-6.19,9.14-10.29,14.69S114.7,63.44,112,63.44C109.73,63.44,107.5,61.5,107.5,54.8Z"/><path class="cls-1" d="M129.82,38.67c-3.39-1.08-4.75-3-4.75-5,0-3.74,5.11-8,11.3-8.06,1.87,0,2.45,1.3,2.45,2.74a10.34,10.34,0,0,1-1.3,4.68c2,1.51,7.27,1.87,7.27,4.61a4.18,4.18,0,0,1-.93,2.3C141.41,43.21,134,52,134,56.75c0,.86.36,1.22.8,1.22a2.89,2.89,0,0,0,1.72-1c.72-.65,4.61-4.61,7.49-7.92,2.09-2.37,9.15-11.09,10.44-12.89.22-.29.36-.43.58-.43.65,0,1.08,1.37,1.08,1.37-1.94,3.1-6.19,9.14-10.3,14.69-3.24,4.46-10.73,13-15.26,13-2.45,0-3.39-1.73-3.39-4.39,0-5.69,4.25-15.41,7.06-21a18.85,18.85,0,0,1-2.09-.28c-.93,1.51-2.37,3.67-4.89,7a3.81,3.81,0,0,1-.72.08c-.65,0-1.44-.15-1.44-.87a3.18,3.18,0,0,1,.86-1.8C126.72,42.71,128.59,40.19,129.82,38.67Z"/><path class="cls-1" d="M151.06,54.37a20.32,20.32,0,0,0-.22,3c0,1.59.72,2.52,2.31,2.52,5,0,10.65-5.25,15.48-10.8,2.08-2.37,9.14-11.09,10.44-12.89.21-.29.36-.43.57-.43.65,0,1.08,1.37,1.08,1.37-1.94,3.1-6.19,9.07-10.29,14.69-5,6.77-11.88,12.53-16.42,12.53-2.74,0-9.58-4.11-9.58-9.58,0-10.8,10.23-26.86,18.08-26.86,2.44,0,2.88,3.82,5,5.26,1.44.93,4.17,1.29,4.17,5C171.72,41.55,157.25,51.13,151.06,54.37ZM165.17,37a2.32,2.32,0,0,0-.72-.15c-5,1.23-9.86,7.06-12.17,13.32C161.07,44.22,163.8,39.75,165.17,37Z"/><path class="cls-1" d="M200.88,42.63c-.65.72-1.8,2.6-2.66,3.6a4.66,4.66,0,0,1-1.3.22c-.5,0-1-.22-1-.72s.29-1,1.08-2c3-3.74,5.76-9.36,5.91-12.09.07-2,.86-3.82,2.16-3.82h.28c1.59.29,5.12,2.3,6.34,2.88.87.43,1.95,1.15,1.95,2a1.4,1.4,0,0,1-.29.79c-1,1.29-3,3.17-3.32,4.39a3.07,3.07,0,0,0-.07.87c0,1.79.58,5.54.58,8.56,0,1.23-.07,2.38-.14,3.53,7.27.07,10.51.51,23.69,2.31.5.07,4.24.5,4.24.79s-1.44.79-3.45,1.94c-3.24.29-.51,1.51-4.61,1.51-.58,0-1.3,0-2.16-.07-6.19-.36-10.8-1.94-18.36-2.59C208.23,61.21,204.26,65.6,197,65.6c-4.53,0-8.49-2.66-8.49-6.69,0-5.19,5.25-7.42,13.68-7.92a32.75,32.75,0,0,0,.28-3.89c0-1.66-.07-5.26-.64-5.26C201.6,41.84,201.24,42.13,200.88,42.63Zm-4.25,18.58c.79,0,3.39-1.94,4.83-6.7-4.11.29-6.7,1.44-6.7,3.89C194.76,59.92,195.48,61.21,196.63,61.21Z"/><path class="cls-1" d="M64.38,74.1H60.81V71.21H71.25V74.1H67.68v9h-3.3Z"/><path class="cls-1" d="M77.64,77.89V71.21H81v6.61c0,1.72.87,2.54,2.2,2.54s2.19-.79,2.19-2.45v-6.7h3.35v6.6c0,3.84-2.2,5.52-5.58,5.52S77.64,81.61,77.64,77.89Z"/><path class="cls-1" d="M95.78,71.21h3.08l4.89,6.29V71.21H107v11.9h-2.89l-5.08-6.53v6.53H95.78Z"/><path class="cls-1" d="M114.23,71.21h9.57V74h-6.31v1.8h5.71v2.6h-5.71V80.3h6.39v2.81h-9.65Z"/><path class="cls-1" d="M129.77,81.34l1.83-2.19a6.15,6.15,0,0,0,3.86,1.43c.88,0,1.36-.31,1.36-.82v0c0-.5-.39-.77-2-1.14-2.53-.58-4.48-1.29-4.48-3.74v0c0-2.21,1.75-3.8,4.6-3.8a7.47,7.47,0,0,1,4.9,1.58l-1.65,2.33a6,6,0,0,0-3.33-1.18c-.8,0-1.19.34-1.19.77v0c0,.55.41.78,2.06,1.16,2.73.59,4.43,1.48,4.43,3.7v0c0,2.43-1.92,3.87-4.81,3.87A8.28,8.28,0,0,1,129.77,81.34Z"/><path class="cls-1" d="M54.12,6.71C57.53,2.31,59.4,0,61.71,0c1.54,0,3.41,1,5.94,3,3.19,2.42,13.31.55,13.42,8.25a1.74,1.74,0,0,1-.55,1.32C73.7,19.69,58.3,58.52,54,84.81c-.22,1.54-.44,3-2.86,3-3,0-6.93-1.65-6.93-4.73.22-2.86,1.87-15.29,2.09-17,0-.88-.44-1.43-2.75-1.43-.66,0-14.19,1.65-16.39,2.31C23,68.09,14.63,82.17,10.89,87.23c-.66.77-1,1.65-2.2,1.65C4.84,88.88,0,82.61,0,79.09a4.23,4.23,0,0,1,1-2.2C18.48,52.47,34.21,32.56,54.12,6.71ZM48.51,54.78l5-19.14c0-.77,0-1.21-.33-1.21-1.1,0-16.28,17.27-16.28,18.7,0,.55.44,1,1.65,1.21A91.82,91.82,0,0,0,48.51,54.78Z"/><path class="cls-1" d="M211.74,14.11c0,4.38-6.06,10.92-11,10.92-1.32,0-2.34-.24-2.34-.6,0-.18.3-.42.9-.6a8.53,8.53,0,0,0,5.58-4.92A4.71,4.71,0,0,1,204,19c-1.32,0-1.92-1-1.92-2.22,0-2.7,2.46-7,4.92-7C208.8,9.85,211.74,12.07,211.74,14.11Z"/><path class="cls-1" d="M153.9,86.61c-5.42,0-10.14-3.09-10.14-7.51,0-6.35,7.28-8.6,18.59-8.67,5.88-12,13.32-27.89,15.64-35.56.7-1.7,2.17-1.7,3.49-1.7h.15c2.33,0,5.81,2.56,5.81,5.19a3.51,3.51,0,0,1-.54,1.86c-.93,1.08-8.29,15.1-10.38,19.21L170.94,70.5c5.27.16,9.07.62,19.52,2.09.54.08,6.9.78,6.9,1.17s-1.55.85-3.72,2.09c-3.49.31-.54,1.62-5,1.62-.62,0-1.39,0-2.32-.07-6-.39-10.69-1.86-17.51-2.64C164.28,84.06,158.78,86.61,153.9,86.61Zm6.51-12.31H160c-5.66,0-9.45,1.16-9.45,4.26A3.29,3.29,0,0,0,153.67,82c1.47,0,3.25-1.09,4.8-4Zm27.73-54.92c3.48,0,6.12,3.49,6.12,5.5s-2.79,6.66-4.88,6.66c-2.64,0-7.44-2.55-7.44-4.95C181.94,23.88,185.12,19.38,188.14,19.38Z"/></g></g></svg>